<?xml version="1.0" encoding="UTF-8"?>
<svg id="Layer_2" data-name="Layer 2" xmlns="http://www.w3.org/2000/svg" xmlns:xlink="http://www.w3.org/1999/xlink" viewBox="0 0 320 273.46">
  <defs>
    <style>
      .cls-1 {
        clip-path: url(#clippath);
      }

      .cls-2 {
        fill: #f26722;
      }

      .cls-2, .cls-3, .cls-4, .cls-5, .cls-6 {
        stroke: #333;
      }

      .cls-2, .cls-3, .cls-4, .cls-6 {
        stroke-miterlimit: 10;
        stroke-width: 4px;
      }

      .cls-7 {
        fill: #333;
        stroke-width: 0px;
      }

      .cls-3, .cls-8 {
        fill: #fff;
      }

      .cls-4, .cls-5 {
        fill: none;
      }

      .cls-5 {
        stroke-linecap: round;
        stroke-linejoin: round;
        stroke-width: 5px;
      }

      .cls-6 {
        fill: #2f67b2;
      }
    </style>
    <clipPath id="clippath">
      <circle class="cls-3" cx="107.08" cy="166.38" r="105.08"/>
    </clipPath>
  </defs>
  <g id="Layer_1-2" data-name="Layer 1">
    <g>
      <circle class="cls-8" cx="107.08" cy="166.38" r="105.08"/>
      <g class="cls-1">
        <path class="cls-2" d="M216.82,297.4H2v-127.7c68.6-15.45,140.7-12.93,214.82,0v127.7Z"/>
        <path class="cls-6" d="M2,181.33v10c68.6-15.45,140.7-12.93,214.82,0v-10c-74.12-12.93-146.22-15.45-214.82,0Z"/>
      </g>
      <circle class="cls-4" cx="107.08" cy="166.38" r="105.08"/>
    </g>
    <g>
      <path class="cls-5" d="M139.28,157.9c8.01-14.57,25.54-4.92,33.55-19.49s-9.51-24.21-1.49-38.77c8.02-14.57,25.54-4.93,33.55-19.49,8.02-14.57-9.51-24.21-1.49-38.78"/>
      <path class="cls-5" d="M116.57,157.04c8.01-14.57,25.54-4.92,33.55-19.49s-9.51-24.21-1.49-38.77,25.54-4.93,33.55-19.49-9.51-24.21-1.49-38.78"/>
      <path class="cls-5" d="M93.32,156.18c8.01-14.57,25.54-4.92,33.55-19.49s-9.51-24.21-1.49-38.77,25.54-4.93,33.55-19.49-9.51-24.21-1.49-38.78"/>
      <line class="cls-5" x1="159.54" y1="39.08" x2="315.41" y2="2.5"/>
      <line class="cls-5" x1="157.39" y1="40.31" x2="317.5" y2="39.61"/>
    </g>
    <g>
      <path class="cls-7" d="M37.12,236.62c.54.63.83.97,1.26,1.54,0,.06,0,.12-.01.18-1.06-.95-2.11-1.93-3.14-2.93,0-.05,0-.11.01-.16.62.43.94.62,1.4.93-.78-4.1-1.62-7.81-2.54-11.1-1.01-.5-2.01-1.02-3.01-1.54-.06,2.34-.13,4.67-.19,7.01.26.33.83,1.03,1.36,1.72,0,.05,0,.09,0,.14-1.05-1.11-2.09-2.25-3.1-3.41v-.11c.48.44,1.06.98,1.34,1.23.11-4.84.21-9.68.32-14.53-.34-.06-1.05-.2-1.66-.32v-.11c1.72.02,3.44.05,5.16.07,2.33-.04,3.57,2.07,3.33,5.32-.22,2.98-1.48,4.35-3.26,4.44.04.02.08.07.12.09.95,3.42,1.82,7.28,2.62,11.56ZM31.09,223.18c.99.5,1.99.99,3,1.47,1.58-.19,2.85-1.26,3.06-4.16.21-2.95-.87-4.87-2.91-4.88-.98-.03-1.96-.06-2.94-.1-.07,2.55-.14,5.1-.21,7.66Z"/>
      <path class="cls-7" d="M48.94,245.8c.65.59,1.03.99,1.44,1.53,0,.08-.02.17-.02.25-1.22-.8-2.42-1.64-3.61-2.5,0-.08.01-.16.02-.23.55.14,1.11.38,1.68.61-.19-3.42-.38-6.75-.59-9.98-2.02-.96-4.02-1.98-5.98-3.05-.68,2.29-1.35,4.47-2,6.54.51.55,1.02,1.14,1.51,1.76,0,.07-.01.13-.02.2-1.09-.9-2.17-1.83-3.23-2.79,0-.06,0-.12.01-.18.41.17.78.38,1.41.75,2.11-6.66,4.44-14.59,6.91-23.66.12,0,.23,0,.35,0,.81,9.17,1.49,19.46,2.11,30.74ZM42.02,231.98c1.9,1,3.83,1.95,5.79,2.86-.42-6.59-.87-12.77-1.38-18.51-1.53,5.67-3.01,10.9-4.41,15.65Z"/>
      <path class="cls-7" d="M65.78,254.94c.57.44,1.05.84,1.56,1.39,0,.11-.02.22-.02.32-1.31-.55-2.61-1.13-3.9-1.73,0-.1.02-.21.02-.31.6-.04,1.17.02,1.83.11.4-11.81.81-23.44,1.23-34.87-.02,0-.04,0-.07,0-2.51,11.35-5.04,22.04-7.56,31.96-.07-.03-.13-.07-.2-.1-.71-11.61-1.4-22.51-2.14-32.6-.01,0-.03,0-.04,0-1.37,9.88-2.73,19.52-4.07,28.9.64.56,1.17,1.1,1.67,1.68,0,.09-.02.18-.02.27-1.2-.72-2.39-1.47-3.57-2.24,0-.08.02-.17.02-.25.52.07,1.02.17,1.6.36,1.41-9.87,2.85-20.02,4.3-30.45-.02-.32-.04-.65-.07-.97-.63-.23-1.23-.4-1.81-.67,0-.09.02-.17.02-.26.75,0,1.49.01,2.24.02.76,10.52,1.48,21.95,2.21,34.15,2.66-10.54,5.34-21.94,7.99-34.07.73,0,1.45.01,2.18.02,0,.11-.02.21-.02.32-.61.31-1.21.49-1.89.73-.08.29-.16.58-.24.87-.44,12.27-.86,24.75-1.27,37.44Z"/>
      <path class="cls-7" d="M79.05,247.56c-.17,3.47-.48,9.12-.71,13-3.41-1-6.77-2.17-10.08-3.52,0-.11.02-.22.02-.33.65-.07,1.42-.05,1.79-.04.92-13.32,1.83-26.63,2.75-39.95-.34-.14-1.04-.48-1.62-.81,0-.11.02-.22.02-.33,3.09.02,6.18.04,9.28.05-.19,3.88-.48,9.02-.72,12.47-.04,0-.07,0-.11-.01.07-3.84.13-7.67.2-11.48-2.18-.03-4.36-.06-6.54-.09-.44,6.5-.88,13-1.33,19.5,1.42.27,2.85.53,4.28.77.18-1.92.46-4.53.71-6.52.04,0,.07,0,.11.01-.28,4.71-.57,9.41-.85,14.12-.04,0-.08-.02-.11-.02,0-2.17.04-4.75.08-6.62-1.43-.25-2.86-.52-4.29-.8-.45,6.63-.9,13.27-1.35,19.9.3.18.6.36.9.54,2.08.76,4.18,1.45,6.29,2.07.39-3.96.77-7.94,1.15-11.93.04,0,.08.02.11.02Z"/>
      <path class="cls-7" d="M91.53,215.68c1.22,0,2.44,0,3.66,0,0,.13,0,.25-.01.38-.66.38-1.35.75-1.69.97-.47,15.52-.94,31.04-1.4,46.57-.11-.02-.22-.03-.33-.05-2.67-15.42-5.06-30.52-7.25-44.94-.67,13.94-1.33,27.88-2,41.82.34.23,1.08.77,1.77,1.3,0,.12-.01.24-.02.37-1.32-.3-2.63-.63-3.94-.99,0-.12.01-.24.02-.36.67-.18,1.44-.35,1.84-.4.7-14.4,1.39-28.79,2.09-43.19-.46-.39-.92-.78-1.38-1.17,0-.12.01-.24.02-.36.58,0,1.16,0,1.74,0,2.17,14.39,4.56,29.48,7.2,44.89.45-14.5.89-29,1.34-43.51-.36-.23-1.09-.61-1.67-.99,0-.12,0-.25.01-.37Z"/>
      <path class="cls-7" d="M111.52,263.53c.7.29,1.08.42,1.64.78,0,.13,0,.26,0,.39-1.34.06-2.69.1-4.04.12,0-.13,0-.26,0-.39.79-.4,1.2-.63,1.77-.88-1.33-7.25-2.61-14.53-3.84-21.82-1.17,0-2.34-.02-3.52-.05-.07,7.27-.13,14.54-.2,21.81.36.17,1.12.51,1.84.91,0,.13,0,.26,0,.39-1.42-.04-2.83-.11-4.25-.2,0-.13,0-.26,0-.38.68-.34,1.47-.6,1.86-.74.16-15.48.31-30.96.47-46.44-.35-.15-1.07-.54-1.67-.93,0-.13,0-.26,0-.38,1.73,0,3.46,0,5.19,0,2.32,0,3.74,4.79,3.79,12.12.04,6.79-1.19,10.82-3.19,13.29.05,0,.09.08.14.08,1.28,7.47,2.61,14.93,4,22.34ZM103.55,240.59c1.16.03,2.32.05,3.48.05,1.77-2.46,3.05-5.95,3.02-12.67-.03-6.79-1.28-11.19-3.32-11.19-.99,0-1.98,0-2.97,0-.07,7.94-.14,15.87-.21,23.81Z"/>
      <path class="cls-7" d="M123.79,249.73c.14,3.69.32,9.71.42,13.86-3.49.54-7,.9-10.52,1.09,0-.13,0-.26,0-.39.67-.42,1.45-.78,1.83-.96-.22-15.44-.44-30.88-.66-46.32-.35-.15-1.08-.54-1.69-.92,0-.13,0-.26,0-.39,3.09,0,6.19,0,9.28-.02.15,4.15.31,9.65.38,13.35-.04,0-.07,0-.11,0-.27-4.09-.54-8.19-.8-12.29-2.18.01-4.37.02-6.55.03.11,7.5.23,14.99.34,22.49,1.46-.06,2.92-.13,4.38-.22.02-2.13.06-5.03.14-7.24.04,0,.07,0,.11,0,.13,5.17.26,10.33.38,15.5-.04,0-.08,0-.12,0-.2-2.34-.38-5.15-.5-7.2-1.46.09-2.93.17-4.39.23.12,7.65.23,15.3.35,22.95.32.05.64.11.96.16,2.18-.18,4.36-.43,6.54-.75.04-4.33.08-8.64.11-12.96.04,0,.08,0,.12-.01Z"/>
      <path class="cls-7" d="M134.87,228.6c.43,7.86-1.23,12.82-4.1,13.24-.99.13-1.97.26-2.96.37.25,6.47.5,12.95.75,19.42.57.04,1.34.11,2.08.39,0,.12.01.25.02.37-1.46.32-2.93.61-4.4.86,0-.12,0-.25-.01-.37.63-.48,1.4-.92,1.77-1.14-.56-14.93-1.12-29.86-1.68-44.79-.6-.22-1.29-.51-1.89-.88,0-.12,0-.25-.01-.37,1.7,0,3.4-.01,5.1-.02,2.78.02,4.92,5.07,5.35,12.93ZM130.74,240.81c2.64-.37,4-4.91,3.62-12.02-.4-7.54-2.32-12.09-4.82-12.1-.91,0-1.82.02-2.73.02.31,8.15.63,16.31.94,24.46,1-.11,1.99-.23,2.98-.36Z"/>
      <path class="cls-7" d="M144.22,215.59c1.22,0,2.44-.02,3.66-.02,0,.11.02.21.02.32-.63.32-1.28.65-1.59.85.66,8.94,1.32,17.87,1.97,26.81.59,7.91-.56,14.22-3.8,15.5-3.25,1.25-5.28-4.35-5.78-13.11-.56-9.7-1.13-19.41-1.69-29.11-.56-.2-1.03-.48-1.7-.83,0-.12-.01-.24-.02-.35,1.28,0,2.56-.01,3.83-.02,0,.11.01.23.02.34-.46.28-1.12.63-1.63.85.57,9.69,1.14,19.38,1.71,29.07.46,8.02,2.29,13.3,5.24,12.19,2.97-1.14,4.03-7.01,3.48-14.44-.66-8.97-1.31-17.93-1.97-26.9-.36-.19-1.15-.5-1.74-.82,0-.11-.02-.22-.02-.33Z"/>
      <path class="cls-7" d="M161.1,240.66c.54,6.06-1.03,10.42-3.87,11.99-1.66.88-3.33,1.71-5.03,2.49,0-.1-.02-.21-.02-.31.6-.6,1.31-1.18,1.65-1.47-.98-12.26-1.97-24.52-2.95-36.79-.36-.11-1.1-.41-1.73-.71,0-.1-.02-.21-.02-.31,1.7-.01,3.39-.03,5.09-.04,2.37.02,3.97,3.1,4.4,7.91.33,3.79-.41,7.03-1.97,9.28,2.26-.02,4.02,2.96,4.47,7.96ZM151.36,216.39c.46,5.74.93,11.48,1.39,17.22,1.11-.26,2.21-.53,3.31-.81.01,0,.03,0,.04-.01,1.58-2.31,2.32-5.58,1.99-9.34-.38-4.3-1.82-7.11-3.87-7.11-.96.02-1.91.04-2.87.05ZM160.6,241.05c-.46-5.21-2.23-8-4.51-7.44-1.09.29-2.18.57-3.27.84.5,6.18,1,12.37,1.5,18.55.28.06,1.43-.37,2.84-1.11,2.58-1.39,3.94-5.21,3.44-10.84Z"/>
      <path class="cls-7" d="M171.6,234.07c.21,2.11.59,6.38.79,8.77-2.84,2.22-5.78,4.27-8.79,6.15,0-.09-.02-.18-.02-.26.56-.63,1.24-1.27,1.56-1.58-.93-10.28-1.87-20.55-2.8-30.83-.36-.09-1.1-.33-1.73-.59,0-.09-.02-.18-.02-.26,1.28-.01,2.57-.02,3.85-.04,0,.08.01.16.02.25-.63.25-1.3.52-1.62.63.93,10.18,1.85,20.36,2.78,30.53.28-.13.56-.26.84-.39,1.82-1.2,3.61-2.46,5.37-3.78-.11-2.88-.22-5.73-.32-8.55.03-.02.07-.04.1-.05Z"/>
      <path class="cls-7" d="M175.18,215.49c-.64.2-1.31.41-1.63.5.67,7.87,1.34,15.74,2,23.61.3-.16.93-.52,1.52-.84,0,.06.01.12.02.19-1.13.99-2.27,1.95-3.43,2.89,0-.07-.01-.14-.02-.21.53-.65,1.16-1.33,1.47-1.66-.68-7.99-1.37-15.97-2.05-23.96-.35-.07-1.09-.25-1.71-.45,0-.07-.01-.14-.02-.21,1.28-.01,2.56-.03,3.84-.04,0,.06.01.12.02.19Z"/>
      <path class="cls-7" d="M186.97,225.02c.02.86.02,2.14.02,2.88-.9,1.68-1.84,3.43-3.43,5.13-2.64,3.05-5.25,1.06-5.85-6.54-.61-7.72,1.78-11.76,5.17-11.56,1.72,0,2.87.5,3.96,1.14.02.75.02,2.08,0,2.97-.03,0-.07.02-.1.03-.16-.87-.33-1.77-.5-2.7-.69-.61-1.87-1.07-3.35-1.05-3.09-.12-5.24,3.64-4.68,10.95.55,7.19,2.9,9.13,5.33,6.41,1.38-1.45,2.37-3.22,2.93-4.45.13-1.07.26-2.12.4-3.13.03-.02.06-.05.09-.07Z"/>
    </g>
  </g>
</svg>