<?xml version="1.0" encoding="utf-8"?>
<!-- Generator: Adobe Illustrator 28.3.0, SVG Export Plug-In . SVG Version: 6.00 Build 0)  -->
<svg version="1.1" id="Layer_1" xmlns="http://www.w3.org/2000/svg" xmlns:xlink="http://www.w3.org/1999/xlink" x="0px" y="0px"
	 viewBox="0 0 1619 589" style="enable-background:new 0 0 1619 589;" xml:space="preserve">
<style type="text/css">
	
		.st0{clip-path:url(#XMLID_00000147189962424862458310000003519478662469004987_);fill:#F16622;stroke:#333333;stroke-width:7.8976;stroke-miterlimit:10;}
	
		.st1{clip-path:url(#XMLID_00000147189962424862458310000003519478662469004987_);fill:#2E67B1;stroke:#333333;stroke-width:7.8976;stroke-miterlimit:10;}
	.st2{fill:none;stroke:#333333;stroke-width:9.872;stroke-linecap:round;stroke-linejoin:round;stroke-miterlimit:10;}
	.st3{fill:#231F20;}
</style>
<g>
	<g>
		<defs>
			<circle id="XMLID_00000097460218666016377370000013039402631942917550_" cx="250.6" cy="352.5" r="207.5"/>
		</defs>
		<use xlink:href="#XMLID_00000097460218666016377370000013039402631942917550_"  style="overflow:visible;fill:#FFFFFF;"/>
		<clipPath id="XMLID_00000070117868768828225150000001583847409185199005_">
			<use xlink:href="#XMLID_00000097460218666016377370000013039402631942917550_"  style="overflow:visible;"/>
		</clipPath>
		
			<path style="clip-path:url(#XMLID_00000070117868768828225150000001583847409185199005_);fill:#F16622;stroke:#333333;stroke-width:7.8976;stroke-miterlimit:10;" d="
			M467.3,611.2H43.1l0-252.1c135.4-30.5,277.8-25.5,424.1,0L467.3,611.2z"/>
		
			<path style="clip-path:url(#XMLID_00000070117868768828225150000001583847409185199005_);fill:#2E67B1;stroke:#333333;stroke-width:7.8976;stroke-miterlimit:10;" d="
			M43.1,382v19.7c135.4-30.5,277.8-25.5,424.1,0V382C320.9,356.5,178.6,351.5,43.1,382z"/>
		
			<use xlink:href="#XMLID_00000097460218666016377370000013039402631942917550_"  style="overflow:visible;fill:none;stroke:#333333;stroke-width:7.8976;stroke-miterlimit:10;"/>
	</g>
	<g>
		<g>
			<path class="st2" d="M314.2,335.8c15.8-28.8,50.4-9.7,66.2-38.5c15.8-28.8-18.8-47.8-2.9-76.6c15.8-28.8,50.4-9.7,66.2-38.5
				s-18.8-47.8-2.9-76.6"/>
		</g>
		<g>
			<path class="st2" d="M269.3,334.1c15.8-28.8,50.4-9.7,66.2-38.5c15.8-28.8-18.8-47.8-2.9-76.6c15.8-28.8,50.4-9.7,66.2-38.5
				s-18.8-47.8-2.9-76.6"/>
		</g>
		<g>
			<path class="st2" d="M223.4,332.4c15.8-28.8,50.4-9.7,66.2-38.5c15.8-28.8-18.8-47.8-2.9-76.6c15.8-28.8,50.4-9.7,66.2-38.5
				c15.8-28.8-18.8-47.8-2.9-76.6"/>
		</g>
		<line class="st2" x1="354.2" y1="101.2" x2="661.9" y2="29"/>
		<line class="st2" x1="349.9" y1="103.6" x2="666" y2="102.2"/>
	</g>
	<g>
		<path class="st3" d="M564.5,411.3c2.8,1.6,5.6,3.4,7.6,5v0.2h-37.2v-0.2c1.9-1.6,4.8-3.5,6.7-4.5l-12.1-32h-8.1v31.9
			c2.8,1.6,5,3,7,4.6v0.2h-35.4v-0.2c2.1-1.7,4.1-3,6.8-4.6v-71.4h-6.8v-2.4h39.9c16.5,0,29.1,6.8,29.1,19.4
			c0,12.4-12.4,19.9-26.7,21.3v0.4c5.3,0.5,10.3,1.3,15.5,2.5L564.5,411.3z M521.3,340.2v37.1H532c7.3-4.1,9.1-10.1,9.1-18.4
			c0-13.1-5.6-18.7-13.1-18.7H521.3z"/>
		<path class="st3" d="M646.6,411.6c2.9,1.7,4.7,2.9,6.8,4.6v0.2h-36v-0.2c1.9-1.5,4.1-2.9,6.9-4.6l-6.5-18.4h-26.6l-5.2,13.7
			c3.8,3.2,6.4,5.6,10.2,9.3v0.2h-23.6v-0.2c3-3,6.3-5.8,10.8-9.3l20.5-53.1l-4.8-13l20.7-4.5L646.6,411.6z M592.1,390.8h24.7
			L605,357.2L592.1,390.8z"/>
		<path class="st3" d="M755.3,411.7c2.8,1.5,4.9,2.9,7,4.5v0.2h-35.2v-0.2c2.1-1.7,4.1-3,6.8-4.6l-3.3-64.3h-0.2L706,415.5h-7.3
			l-23-69.2l-4.1,60.6c4,3,7.9,6.3,11,9.3v0.2h-23.8v-0.2c2.9-2.9,7-6.5,10.4-9.3l4.6-66.8h-8.6v-2.3h29.5l17.2,54.4l19.5-54.4h27.8
			v2.3h-8.1L755.3,411.7z"/>
		<path class="st3" d="M838.1,387.9c0.5,8.2,0.8,21.5,0.8,28.6h-65.1V414h6.8v-71.5c-2.7-1.5-4.7-2.8-6.8-4.5v-0.2h62.6v25H834
			v-22.7l-31.8,0.1v35h6.5c3-4.6,8-11.5,11.8-16h0.6v34.6h-0.6c-3.9-4.7-8.7-11.3-11.8-16.1h-6.5v33.9l7.3,2.4h8l20-26.2H838.1z"/>
		<path class="st3" d="M907.6,337.8h22.1v2.3H920v76.4h-8.2l-47.9-72.6v63c3.6,3.2,7,6.3,9.7,9.3v0.2h-21.8v-0.2
			c2.8-3,6.1-6.2,9.7-9.3v-66.8h-9.3v-2.3h32.4l33.1,52.4v-50.1h-9.9V337.8z"/>
		<path class="st3" d="M1043.1,411.3c2.8,1.6,5.6,3.4,7.6,5v0.2h-37.2v-0.2c1.9-1.6,4.9-3.5,6.7-4.5l-12.1-32h-8.1v31.9
			c2.8,1.6,5,3,7,4.6v0.2h-35.4v-0.2c2.1-1.7,4.1-3,6.8-4.6v-71.4h-6.8v-2.4h39.9c16.5,0,29.1,6.8,29.1,19.4
			c0,12.4-12.4,19.9-26.7,21.3v0.4c5.3,0.5,10.3,1.3,15.5,2.5L1043.1,411.3z M999.9,340.2v37.1h10.7c7.3-4.1,9.1-10.1,9.1-18.4
			c0-13.1-5.6-18.7-13.1-18.7H999.9z"/>
		<path class="st3" d="M1121.6,387.9c0.5,8.2,0.8,21.5,0.8,28.6h-65.1V414h6.8v-71.5c-2.7-1.5-4.7-2.8-6.8-4.5v-0.2h62.6v25h-2.4
			v-22.7l-31.8,0.1v35h6.5c3-4.6,8-11.5,11.8-16h0.6v34.6h-0.6c-3.9-4.7-8.7-11.3-11.8-16.1h-6.5v33.9l7.3,2.4h8l20-26.2H1121.6z"/>
		<path class="st3" d="M1165.3,383.9v27.8c3.4,1.5,6.5,3,9.2,4.6v0.2h-37.6v-0.2c2.1-1.7,4.1-3,6.8-4.6v-71.4h-6.8v-2.4h36.9
			c18.7,0,34.1,7.6,34.1,23.5c0,16.2-15.8,22.6-34.8,22.6H1165.3z M1165.3,340.2v41.2h5.1c11.2,0,15.8-6.2,15.8-19.6
			c0-15.6-6.2-21.6-14.6-21.6H1165.3z"/>
		<path class="st3" d="M1271.6,337.8h21.8v2.3h-9.7v50c0,15.6-6.3,27.6-28.3,27.6c-20.2,0-32.4-10.2-32.4-27.8v-49.8h-6.9v-2.3h34.6
			v2.3h-6.1v50c-0.2,13.9,6.3,23.9,18.3,23.9c11.5,0,18.3-9.1,18.3-23.9v-50h-9.7V337.8z"/>
		<path class="st3" d="M1347.9,374.5c16,0,26.9,8.6,26.9,21.2c0,12.9-12.6,20.7-33.5,20.7h-37.5v-0.2c2.1-1.7,4.1-3,6.8-4.6v-71.5
			h-6.8v-2.3h38.8c16.5,0,27.2,6.5,27.2,17.8c0,9.5-7.4,14.5-23.4,18.9H1347.9z M1332.2,340.2v34.3h10.7c4.5-4.2,7.2-9.2,7.2-17.2
			c0-12.2-4.5-17.1-12.2-17.1H1332.2z M1353.5,396.9c0-13-5.9-20-16.9-20h-4.4V411c2.9,2.3,5.3,3,7.9,3
			C1347.8,414,1353.5,408.2,1353.5,396.9z"/>
		<path class="st3" d="M1449.1,385.5c0.5,8.2,0.8,23.8,0.8,30.9h-62.8v-0.2c2.1-1.7,4.1-3,6.8-4.6v-71.5h-6.8v-2.3h35.3v2.3h-6.9
			v71.5l7.3,2.4h5.7l20-28.5H1449.1z"/>
		<path class="st3" d="M1496.8,340.1h-6.9v71.5c2.8,1.6,5,3,6.9,4.6v0.2h-35.3v-0.2c2.1-1.7,4.1-3,6.8-4.6v-71.5h-6.8v-2.3h35.3
			V340.1z"/>
		<path class="st3" d="M1575,388c0.5,8.2,0.8,17.1,0.8,24.1c-5.9,3.3-16.2,5.6-25.8,5.6c-25.5,0-40.5-16.6-40.5-40.5
			c0-25,16.2-40.6,41.2-40.6c7.9,0,18.1,2.2,24.1,5.5c0,7-0.4,16-0.8,24.3h-0.7l-20-26.8c-0.6-0.2-1.8-0.5-2.9-0.5
			c-12.1,0-16.7,11.6-16.7,37.1c0,27.3,5.2,39,16.4,39c1.5,0,2.8-0.1,3.4-0.5l20.9-26.7H1575z"/>
	</g>
</g>
</svg>
